# xmcd
#
# Track frame offsets: 
#        150
#        14830
#        26272
#        40445
#        52527
#        65772
#        80150
#        94490
#        107087
#        122432
#        133620
#        145722
#        158520
#        172360
#        187917
#        202942
#        218750
#        231615
#        245870
#        258770
#        272555
#        287065
#        300172
#
# Disc length: 4202 seconds
#
# Revision: 3
# Processed by: cddbd v1.5.2PL0 Copyright (c) Steve Scherf et al.
# Submitted via: ExactAudioCopy v0.95b4
#
DISCID=49106817
DTITLE=Various Artist - I Can't Be Satisfied: Early American Women Blues Sing
DTITLE=ers Volume 1 Country
DYEAR=1997
DGENRE=Blues
TTITLE0=Ruby Glaze - Lonesome Day Blues
TTITLE1=Hattie Hart - Papa's Got Your Bath Water on
TTITLE2=Hattie Hudson - Black Hand Blues
TTITLE3=Lottie Kimbrough - Goin' Away Blues
TTITLE4=Bertha Lee - Mind Reader Blues
TTITLE5=Memphis Minnie - Outdoor Blues
TTITLE6=Bertha Henderson - That Lonesome Rave
TTITLE7=Mae Glover - I Ain't Givin' Nobody None
TTITLE8=Rosie Mae Moore - School Girl Blues
TTITLE9=Lillian Miller - Dead Drunk Blues
TTITLE10=Lizzie Washington - My Low Down Brown
TTITLE11=Irene Scruggs - My Back To The Wall
TTITLE12=Geeshie Wiley - Eagles on a Half
TTITLE13=Bessie Tucker - Penitentiary
TTITLE14=Lottie Kimbrough - Rolling Log Blues
TTITLE15=Jennie Clayton - State of Tennessee Blues
TTITLE16=Mae Glover - Shake it Daddy
TTITLE17=Pearl Dickenson - Twelve Pound Daddy
TTITLE18=Irene Scruggs - The Voice of the Blues
TTITLE19=Elizabeth Johnson - Be My Kid Blues
TTITLE20=Geeshie Wiley - Pick Poor Robin Clean
TTITLE21=Bertha Lee - Yellow Bee
TTITLE22=Mattie Delaney - Down the Big Road Blues
EXTD=
EXTT0=
EXTT1=
EXTT2=
EXTT3=
EXTT4=
EXTT5=
EXTT6=
EXTT7=
EXTT8=
EXTT9=
EXTT10=
EXTT11=
EXTT12=
EXTT13=
EXTT14=
EXTT15=
EXTT16=
EXTT17=
EXTT18=
EXTT19=
EXTT20=
EXTT21=
EXTT22=
PLAYORDER=
